# xmcd CD database file generated by OrangeCD 5.2
#
# Track frame offsets:
#	187
#	12600
#	22415
#	35502
#	47507
#	59985
#	72540
#	85450
#	101702
#	116657
#
# Disc length: 1707 seconds
#
# Revision: 2
# Processed by: cddbd v1.5.1PL0 Copyright (c) Steve Scherf et al.
# Submitted via: OrangeCD 5.2
#
DISCID=9a06a90a
DTITLE=Prairie Oyster - Everybody Knows
DYEAR=1991
DGENRE=Country
TTITLE0=Will I Do (Till The Real Thing Comes Along)
TTITLE1=One Precious Love
TTITLE2=Can't Say Goodbye
TTITLE3=Am I That Easy To Forget
TTITLE4=Just For Old Times Sake
TTITLE5=Everybody Knows
TTITLE6=Here's To You
TTITLE7=Did You Fall In Love With Me
TTITLE8=I Think That We Did Something
TTITLE9=Goodbye Lonesome (Hello, Baby Doll)
EXTD=
EXTT0=
EXTT1=
EXTT2=
EXTT3=
EXTT4=
EXTT5=
EXTT6=
EXTT7=
EXTT8=
EXTT9=
PLAYORDER=
